<svg width="31" height="31" viewBox="0 0 31 31" fill="none" xmlns="http://www.w3.org/2000/svg">
<path d="M20.0208 13.5625L16.1458 17.4375L13.5625 14.8542L9.68749 18.7292" stroke="white" stroke-width="2" stroke-linecap="round" stroke-linejoin="round"/>
<path d="M18.0833 6.45834H8.36667C7.24656 6.45834 6.68651 6.45834 6.25869 6.67633C5.88236 6.86808 5.5764 7.17404 5.38465 7.55036C5.16667 7.97819 5.16667 8.53824 5.16667 9.65834V22.6333C5.16667 23.7534 5.16667 24.3135 5.38465 24.7413C5.5764 25.1176 5.88236 25.4236 6.25869 25.6154C6.68651 25.8333 7.24656 25.8333 8.36667 25.8333H21.3417C22.4618 25.8333 23.0218 25.8333 23.4496 25.6154C23.826 25.4236 24.1319 25.1176 24.3237 24.7413C24.5417 24.3135 24.5417 23.7534 24.5417 22.6333V12.9167" stroke="white" stroke-width="2" stroke-linecap="round"/>
<circle cx="24.5417" cy="6.45833" r="2.58333" fill="white"/>
</svg>
