<svg width="20" height="20" viewBox="0 0 20 20" fill="none" xmlns="http://www.w3.org/2000/svg">
<path d="M9.99786 0.622559C6.20831 0.622559 3.12348 3.7074 3.12347 7.49694C3.12347 14.1649 9.61031 19.2341 9.61031 19.2341C9.72104 19.3225 9.8585 19.3706 10.0002 19.3706C10.1418 19.3706 10.2793 19.3225 10.39 19.2341C10.39 19.2341 16.8769 14.1649 16.8769 7.49694C16.8768 3.7074 13.7874 0.622559 9.99786 0.622559ZM9.99786 1.87287C13.1119 1.87287 15.6265 4.38294 15.6265 7.49694C15.6266 12.9519 10.687 17.2617 10.0025 17.8454C9.32118 17.2646 4.37378 12.954 4.37378 7.49694C4.37378 4.38294 6.88386 1.87287 9.99786 1.87287Z" fill="#B0B0D1"/>
<path d="M9.99785 4.37354C8.27937 4.37354 6.8744 5.77852 6.87439 7.497C6.87438 9.2155 8.27936 10.6251 9.99785 10.6251C11.7163 10.6251 13.1259 9.2155 13.1259 7.497C13.1259 5.77852 11.7163 4.37354 9.99785 4.37354ZM9.99785 5.62384C11.0408 5.62384 11.8756 6.45406 11.8756 7.497C11.8756 8.53993 11.0408 9.37476 9.99785 9.37476C8.95491 9.37476 8.12469 8.53993 8.1247 7.497C8.1247 6.45406 8.95492 5.62384 9.99785 5.62384Z" fill="#B0B0D1"/>
</svg>
