<svg width="20" height="20" viewBox="0 0 20 20" fill="none" xmlns="http://www.w3.org/2000/svg">
<path d="M14.1666 3.33325C13.7064 3.33325 13.3333 3.70635 13.3333 4.16659C13.3333 4.62682 13.7064 4.99992 14.1666 4.99992H17.5C17.9602 4.99992 18.3333 4.62682 18.3333 4.16659C18.3333 3.70635 17.9602 3.33325 17.5 3.33325H14.1666Z" fill="#777E91"/>
<path fill-rule="evenodd" clip-rule="evenodd" d="M11.6667 10.8334C11.6667 8.53225 13.5322 6.66675 15.8334 6.66675C18.1345 6.66675 20 8.53225 20 10.8334V11.6667C20 12.127 19.6269 12.5001 19.1667 12.5001H13.3334C13.3334 13.8808 14.4526 15.0001 15.8334 15.0001C16.4146 15.0001 16.9494 14.8017 17.374 14.4691C17.5958 14.2952 17.8578 14.1667 18.1396 14.1667C18.8537 14.1667 19.3106 14.9043 18.811 15.4147C18.0547 16.1872 17 16.6667 15.8334 16.6667C13.5322 16.6667 11.6667 14.8012 11.6667 12.5001V10.8334ZM15.8334 8.33341C14.4526 8.33341 13.3334 9.45266 13.3334 10.8334H18.3334C18.3334 9.45266 17.2141 8.33341 15.8334 8.33341Z" fill="#777E91"/>
<path fill-rule="evenodd" clip-rule="evenodd" d="M1.66667 4.99992V8.33325H5.83333C6.75381 8.33325 7.5 7.58706 7.5 6.66659C7.5 5.74611 6.75381 4.99992 5.83333 4.99992H1.66667ZM8.16648 9.04725C8.78375 8.44225 9.16667 7.59914 9.16667 6.66659C9.16667 4.82564 7.67428 3.33325 5.83333 3.33325H1.33333C0.596953 3.33325 0 3.93021 0 4.66659V15.238C0 16.027 0.639594 16.6666 1.42858 16.6666H5.83333C8.13452 16.6666 10 14.8011 10 12.4999C10 11.0632 9.27283 9.79634 8.16648 9.04725ZM1.66667 9.99992V14.9999H5.83333C7.21404 14.9999 8.33333 13.8807 8.33333 12.4999C8.33333 11.1192 7.21404 9.99992 5.83333 9.99992H1.66667Z" fill="#777E91"/>
</svg>
