<svg width="20" height="20" viewBox="0 0 20 20" fill="none" xmlns="http://www.w3.org/2000/svg">
<path fill-rule="evenodd" clip-rule="evenodd" d="M10 16.6667C13.6819 16.6667 16.6667 13.682 16.6667 10.0001C16.6667 6.31818 13.6819 3.33341 10 3.33341C6.31812 3.33341 3.33335 6.31818 3.33335 10.0001C3.33335 13.682 6.31812 16.6667 10 16.6667ZM10 18.3334C14.6024 18.3334 18.3334 14.6024 18.3334 10.0001C18.3334 5.39771 14.6024 1.66675 10 1.66675C5.39765 1.66675 1.66669 5.39771 1.66669 10.0001C1.66669 14.6024 5.39765 18.3334 10 18.3334Z" fill="#777E90"/>
<path d="M12.8952 17.8167C12.5993 15.7082 12.1063 13.7946 11.4124 11.9858C9.71377 12.8093 7.81394 14.2482 5.20164 16.8141C4.74459 16.4916 4.32143 16.1244 3.93855 15.7187C6.68219 13.013 8.77769 11.3954 10.7634 10.4486C10.5087 9.89637 10.234 9.35196 9.93919 8.81254C7.60129 9.54937 4.93559 9.93762 1.66669 9.99312C1.66715 9.42112 1.72525 8.86254 1.8355 8.32293C4.72045 8.26112 7.0542 7.92722 9.0741 7.33376C8.13654 5.82934 7.03765 4.34437 5.77477 2.81576C6.2672 2.52552 6.79207 2.28447 7.34264 2.09937C8.61702 3.66567 9.7336 5.2051 10.6898 6.77942C12.4862 6.06937 14.0784 5.11107 15.6679 3.89098C16.0764 4.27018 16.4469 4.68987 16.7728 5.14364C15.1196 6.42239 13.4338 7.45881 11.5244 8.24011C11.8054 8.76487 12.0689 9.29546 12.3152 9.83396C14.204 9.23554 16.0633 9.17371 18.2923 9.16737C18.3194 9.44121 18.3334 9.71904 18.3334 10C18.3334 10.2816 18.3194 10.56 18.2921 10.8344C16.1385 10.842 14.5414 10.9027 12.9641 11.3775C13.6414 13.1405 14.1424 15.0042 14.464 17.0381C13.9735 17.3499 13.4482 17.6118 12.8952 17.8167Z" fill="#777E90"/>
</svg>
