<svg width="20" height="20" viewBox="0 0 20 20" fill="none" xmlns="http://www.w3.org/2000/svg">
<path fill-rule="evenodd" clip-rule="evenodd" d="M10 16.6667C13.6819 16.6667 16.6667 13.682 16.6667 10.0001C16.6667 6.31818 13.6819 3.33341 10 3.33341C6.31812 3.33341 3.33335 6.31818 3.33335 10.0001C3.33335 13.682 6.31812 16.6667 10 16.6667ZM10 18.3334C14.6024 18.3334 18.3334 14.6024 18.3334 10.0001C18.3334 5.39771 14.6024 1.66675 10 1.66675C5.39765 1.66675 1.66669 5.39771 1.66669 10.0001C1.66669 14.6024 5.39765 18.3334 10 18.3334Z" fill="#777E91"/>
<path d="M10 8.33325C10 7.87302 10.3731 7.49992 10.8334 7.49992H11.6667C12.1269 7.49992 12.5 7.12683 12.5 6.66659C12.5 6.20635 12.1269 5.83325 11.6667 5.83325H10.8334C9.4526 5.83325 8.33335 6.95254 8.33335 8.33325V9.99992H7.50002C7.03979 9.99992 6.66669 10.373 6.66669 10.8333C6.66669 11.2935 7.03978 11.6666 7.50002 11.6666H8.33335V16.6666C8.33335 17.1268 8.70644 17.4999 9.16669 17.4999C9.62694 17.4999 10 17.1268 10 16.6666V11.6666H11.6667C12.1269 11.6666 12.5 11.2935 12.5 10.8333C12.5 10.373 12.1269 9.99992 11.6667 9.99992H10V8.33325Z" fill="#777E91"/>
</svg>
