<svg width="11" height="16" viewBox="0 0 11 16" fill="none" xmlns="http://www.w3.org/2000/svg">
<g clip-path="url(#clip0_5_1604)">
<path d="M9.45983 10.9467V12.9467C9.46033 13.1324 9.4351 13.3162 9.38575 13.4863C9.3364 13.6564 9.26403 13.8091 9.17326 13.9346C9.08249 14.0602 8.97534 14.1557 8.85865 14.2152C8.74196 14.2747 8.61832 14.2968 8.49564 14.2801C7.13465 14.0572 5.82733 13.3562 4.67871 12.2334C3.61007 11.2098 2.70404 9.84418 2.02499 8.2334C1.27751 6.4942 0.812342 4.51406 0.667164 2.4534C0.656112 2.26904 0.670647 2.08324 0.709845 1.90781C0.749043 1.73239 0.812044 1.57119 0.894838 1.43448C0.977632 1.29777 1.0784 1.18854 1.19074 1.11375C1.30307 1.03895 1.42451 1.00024 1.54732 1.00006H2.87418C3.08882 0.99688 3.29691 1.11145 3.45966 1.32242C3.62241 1.53339 3.72871 1.82636 3.75875 2.14673C3.81475 2.78678 3.91861 3.41522 4.06835 4.02006C4.12786 4.25868 4.14074 4.51801 4.10546 4.76732C4.07019 5.01663 3.98824 5.24547 3.86932 5.42673L3.30762 6.2734C3.93724 7.94243 4.85405 9.32436 5.96134 10.2734L6.52304 9.42673C6.6433 9.24749 6.79512 9.12396 6.96052 9.07079C7.12592 9.01762 7.29796 9.03704 7.45627 9.12673C7.85754 9.35243 8.27447 9.50898 8.6991 9.5934C8.91394 9.63909 9.11016 9.8022 9.25042 10.0517C9.39068 10.3013 9.46521 10.6198 9.45983 10.9467Z" stroke="#B0B0D1" stroke-width="1.3" stroke-linecap="round" stroke-linejoin="round"/>
</g>
<defs>
<clipPath id="clip0_5_1604">
<rect width="10.6149" height="16" fill="white"/>
</clipPath>
</defs>
</svg>
