<svg width="172" height="38" viewBox="0 0 172 38" fill="none" xmlns="http://www.w3.org/2000/svg">
<path d="M148.94 4.00535V10.525C148.94 12.7469 147.156 14.5303 144.933 14.5303H138.412C136.189 14.5303 134.405 16.3138 134.405 18.5357C134.405 20.7576 136.189 22.541 138.412 22.541H144.933C147.156 22.541 148.94 24.3244 148.94 26.5464V33.066C148.94 35.288 150.723 37.0714 152.946 37.0714C155.169 37.0714 156.952 35.288 156.952 33.066V26.5464C156.952 24.3244 158.736 22.541 160.959 22.541H167.48C169.703 22.541 171.487 20.7576 171.487 18.5357C171.487 16.3138 169.703 14.5303 167.48 14.5303H160.959C158.736 14.5303 156.952 12.7469 156.952 10.525V4.00535C156.952 1.7834 155.169 0 152.946 0C150.753 0 148.94 1.7834 148.94 4.00535Z" fill="#FF5156" fill-opacity="0.5"/>
<path d="M89.7497 33.066V26.5464C89.7497 24.3244 91.5336 22.541 93.7562 22.541H100.278C102.5 22.541 104.284 20.7576 104.284 18.5357C104.284 16.3138 102.5 14.5303 100.278 14.5303H93.7562C91.5336 14.5303 89.7497 12.7469 89.7497 10.525V4.00535C89.7497 1.7834 87.9659 0 85.7433 0C83.5208 0 81.7369 1.7834 81.7369 4.00535V10.525C81.7369 12.7469 79.9531 14.5303 77.7305 14.5303H71.2091C68.9865 14.5303 67.2027 16.3138 67.2027 18.5357C67.2027 20.7576 68.9865 22.541 71.2091 22.541H77.7305C79.9531 22.541 81.7369 24.3244 81.7369 26.5464V33.066C81.7369 35.288 83.5208 37.0714 85.7433 37.0714C87.9659 37.0714 89.7497 35.288 89.7497 33.066Z" fill="#FF5156" fill-opacity="0.5"/>
<path d="M22.5472 33.066V26.5464C22.5472 24.3244 24.331 22.541 26.5536 22.541H33.0749C35.2974 22.541 37.0814 20.7576 37.0814 18.5357C37.0814 16.3138 35.2974 14.5303 33.0749 14.5303H26.5536C24.331 14.5303 22.5472 12.7469 22.5472 10.525V4.00535C22.5472 1.7834 20.7632 0 18.5407 0C16.3181 0 14.5342 1.7834 14.5342 4.00535V10.525C14.5342 12.7469 12.7504 14.5303 10.5278 14.5303H4.0065C1.78396 14.5303 0 16.3138 0 18.5357C0 20.7576 1.78396 22.541 4.0065 22.541H10.5278C12.7504 22.541 14.5342 24.3244 14.5342 26.5464V33.066C14.5342 35.288 16.3181 37.0714 18.5407 37.0714C20.7632 37.0714 22.5472 35.288 22.5472 33.066Z" fill="#FF5156" fill-opacity="0.5"/>
</svg>
