<svg width="30" height="30" viewBox="0 0 30 30" fill="none" xmlns="http://www.w3.org/2000/svg">
<path d="M3.75 11.75C3.75 7.97876 3.75 6.09315 4.92157 4.92157C6.09315 3.75 7.97876 3.75 11.75 3.75H18.25C22.0212 3.75 23.9069 3.75 25.0784 4.92157C26.25 6.09315 26.25 7.97876 26.25 11.75V18.25C26.25 22.0212 26.25 23.9069 25.0784 25.0784C23.9069 26.25 22.0212 26.25 18.25 26.25H11.75C7.97876 26.25 6.09315 26.25 4.92157 25.0784C3.75 23.9069 3.75 22.0212 3.75 18.25V11.75Z" stroke="white" stroke-width="2"/>
<path fill-rule="evenodd" clip-rule="evenodd" d="M24.25 17.8356L23.5355 17.1212L23.489 17.0746L23.489 17.0746C22.8622 16.4477 22.3221 15.9076 21.8315 15.5333C21.3056 15.132 20.7208 14.8283 20 14.8283C19.2792 14.8283 18.6944 15.132 18.1685 15.5332C17.6779 15.9076 17.1378 16.4478 16.511 17.0746L16.4645 17.1212L16.3817 17.2039C15.8853 17.7003 15.5912 17.9907 15.3628 18.1603L15.3528 18.1677L15.3463 18.1571C15.1973 17.9149 15.032 17.536 14.7555 16.8907L14.4965 16.2864L14.465 16.213L14.465 16.213C13.9647 15.0454 13.5452 14.0665 13.1125 13.3632C12.66 12.6277 12.0695 11.9855 11.1427 11.807C10.2159 11.6285 9.42914 12.0055 8.73581 12.5203C8.07283 13.0127 7.31985 13.7657 6.42164 14.664L6.36521 14.7204L5.75 15.3356V18.1641L7.77943 16.1346C8.74907 15.165 9.39807 14.5197 9.92817 14.126C10.4418 13.7447 10.6493 13.7488 10.7645 13.7709C10.8797 13.7931 11.0739 13.8664 11.4091 14.4112C11.7551 14.9736 12.118 15.8138 12.6582 17.0742L12.9172 17.6785L12.944 17.741C13.1843 18.3021 13.4068 18.8214 13.6429 19.2052C13.8985 19.6206 14.2928 20.0839 14.9591 20.2122C15.6254 20.3406 16.1636 20.0568 16.5552 19.766C16.9169 19.4974 17.3163 19.0979 17.7479 18.6662L17.7959 18.6181L17.8787 18.5354C18.5653 17.8487 19.0107 17.4064 19.3817 17.1233C19.7296 16.8578 19.8923 16.8283 20 16.8283C20.1077 16.8283 20.2704 16.8578 20.6183 17.1233C20.9893 17.4064 21.4347 17.8487 22.1213 18.5354L24.2334 20.6475C24.249 19.9846 24.25 19.1993 24.25 18.2498V17.8356ZM15.2161 18.2529C15.2161 18.2528 15.2176 18.2521 15.2205 18.2512C15.2175 18.2525 15.216 18.253 15.2161 18.2529ZM15.4447 18.2944C15.447 18.2963 15.4482 18.2975 15.4482 18.2976C15.4482 18.2977 15.447 18.2967 15.4447 18.2944Z" fill="white"/>
<circle cx="20.625" cy="9.375" r="1.875" fill="white"/>
</svg>
