<svg width="31" height="31" viewBox="0 0 31 31" fill="none" xmlns="http://www.w3.org/2000/svg">
<path d="M11.625 20.6667H8.07607C7.22915 20.6667 6.80569 20.6667 6.46749 20.7928C5.92416 20.9956 5.49558 21.4242 5.29285 21.9675C5.16666 22.3057 5.16666 22.7291 5.16666 23.5761V23.5761C5.16666 24.5873 5.16666 25.0929 5.3261 25.4679C5.58259 26.0712 6.11843 26.5105 6.76029 26.6437C7.15929 26.7265 7.65508 26.6273 8.64666 26.429L9.02912 26.3525C9.96791 26.1647 10.4373 26.0709 10.7861 25.8221C11.0751 25.6161 11.3041 25.3368 11.4495 25.0129C11.625 24.6221 11.625 24.1434 11.625 23.186V11.0292C11.625 9.45945 11.625 8.67458 12.0783 8.12162C12.5316 7.56866 13.3013 7.41474 14.8405 7.10688L19.7572 6.12355C21.9708 5.68083 23.0776 5.45947 23.8096 6.05958C24.5417 6.65969 24.5417 7.78842 24.5417 10.0459V11.625M24.5417 18.0833V20.6027C24.5417 21.5601 24.5417 22.0388 24.3662 22.4296C24.2208 22.7534 23.9918 23.0327 23.7028 23.2388C23.354 23.4875 22.8846 23.5814 21.9458 23.7692L21.5633 23.8457C20.5717 24.044 20.076 24.1431 19.677 24.0603C19.0351 23.9271 18.4993 23.4879 18.2428 22.8846C18.0833 22.5096 18.0833 22.004 18.0833 20.9927V20.9927C18.0833 20.1458 18.0833 19.7224 18.2095 19.3842C18.4122 18.8408 18.8408 18.4122 19.3842 18.2095C19.7224 18.0833 20.1458 18.0833 20.9927 18.0833H24.5417ZM24.5417 18.0833V11.625M24.5417 11.625L11.625 14.2083" stroke="white" stroke-width="2"/>
</svg>
