<svg width="27" height="27" viewBox="0 0 27 27" fill="none" xmlns="http://www.w3.org/2000/svg">
<path d="M20.25 3.37501V3.37501C20.5983 3.37501 20.7724 3.37501 20.919 3.38946C22.3434 3.52974 23.4703 4.65663 23.6106 6.08096C23.625 6.22763 23.625 6.40176 23.625 6.75001L23.625 9.16072C23.625 9.59748 23.625 9.81586 23.4978 9.95817C23.4854 9.97212 23.4721 9.98536 23.4582 9.99782C23.3159 10.125 23.0975 10.125 22.6607 10.125L16.875 10.125M20.25 3.37501V3.37501C19.9017 3.37501 19.7276 3.37501 19.581 3.38946C18.1566 3.52974 17.0297 4.65663 16.8894 6.08096C16.875 6.22763 16.875 6.40176 16.875 6.75001L16.875 10.125M20.25 3.37501L7.375 3.37501C5.48938 3.37501 4.54657 3.37501 3.96079 3.9608C3.375 4.54658 3.375 5.48939 3.375 7.37501L3.375 23.625L6.75 22.5L10.125 23.625L13.5 22.5L16.875 23.625L16.875 10.125" stroke="white" stroke-width="2"/>
<path d="M7.875 7.875L12.375 7.875" stroke="white" stroke-width="2" stroke-linecap="round"/>
<path d="M9 12.375H7.875" stroke="white" stroke-width="2" stroke-linecap="round"/>
<path d="M7.875 16.875L11.25 16.875" stroke="white" stroke-width="2" stroke-linecap="round"/>
</svg>
