<svg width="26" height="26" viewBox="0 0 26 26" fill="none" xmlns="http://www.w3.org/2000/svg">
<path d="M20.1095 3.58308C19.0721 2.78706 17.9179 2.16001 16.6898 1.72309C16.2631 1.57128 16.0497 1.49537 15.8559 1.59716C15.6621 1.69896 15.6002 1.92992 15.4764 2.39185L12.7588 12.5341C12.6368 12.9894 12.5758 13.2171 12.6794 13.3964C12.7829 13.5758 13.0106 13.6368 13.4659 13.7588L23.6081 16.4764C24.0701 16.6002 24.301 16.6621 24.4861 16.5451C24.6712 16.4282 24.7121 16.2054 24.794 15.76C25.0297 14.4779 25.0637 13.1649 24.8931 11.8684C24.6788 10.2409 24.1461 8.6716 23.3253 7.25C22.5046 5.8284 21.4118 4.58238 20.1095 3.58308Z" stroke="white" stroke-width="2"/>
<path d="M11.8878 7.07429C10.211 6.85439 8.50644 7.1251 6.98032 7.85367C5.45419 8.58224 4.17189 9.73744 3.28855 11.1795C2.40521 12.6216 1.95869 14.2887 2.003 15.9793C2.04732 17.6698 2.58057 19.3113 3.53825 20.7051C4.49592 22.0989 5.83698 23.1854 7.39918 23.833C8.96138 24.4806 10.6778 24.6616 12.3407 24.3542C14.0036 24.0468 15.5419 23.264 16.7693 22.1007C17.9967 20.9373 18.8606 19.4432 19.2567 17.7991" stroke="white" stroke-width="2"/>
</svg>
