<svg width="104" height="17" viewBox="0 0 104 17" fill="none" xmlns="http://www.w3.org/2000/svg">
<path d="M8.5 0L10.4084 5.87336L16.584 5.87336L11.5878 9.50329L13.4962 15.3766L8.5 11.7467L3.50383 15.3766L5.41219 9.50329L0.416019 5.87336L6.59163 5.87336L8.5 0Z" fill="#FAB437"/>
<path d="M30.5 0L32.4084 5.87336L38.584 5.87336L33.5878 9.50329L35.4962 15.3766L30.5 11.7467L25.5038 15.3766L27.4122 9.50329L22.416 5.87336L28.5916 5.87336L30.5 0Z" fill="#FAB437"/>
<path d="M52 0L54.0206 5.87336L60.5595 5.87336L55.2694 9.50329L57.2901 15.3766L52 11.7467L46.7099 15.3766L48.7306 9.50329L43.4405 5.87336L49.9794 5.87336L52 0Z" fill="#FAB437"/>
<path d="M73.5 0L75.4084 5.87336L81.584 5.87336L76.5878 9.50329L78.4962 15.3766L73.5 11.7467L68.5038 15.3766L70.4122 9.50329L65.416 5.87336L71.5916 5.87336L73.5 0Z" fill="#FAB437"/>
<path d="M95.5 0L97.4084 5.87336L103.584 5.87336L98.5878 9.50329L100.496 15.3766L95.5 11.7467L90.5038 15.3766L92.4122 9.50329L87.416 5.87336L93.5916 5.87336L95.5 0Z" fill="#CBC2FF"/>
</svg>
